<svg width="320" height="300" xmlns="http://www.w3.org/2000/svg" xmlns:xlink="http://www.w3.org/1999/xlink" class="illustration">
 <defs>
  <linearGradient y2="-2.234604" x2="2.193356" y1="2.357457" x1="-0.762431" id="linear-gradient">
   <stop offset="0.01"/>
   <stop stop-opacity="0.69" offset="0.13"/>
   <stop stop-opacity="0.32" offset="0.25"/>
   <stop stop-opacity="0" offset="1"/>
  </linearGradient>
  <linearGradient xlink:href="#linear-gradient" y2="721.97" x2="191.13" y1="705.84" x1="184.6" id="linear-gradient-2"/>
  <linearGradient xlink:href="#linear-gradient" y2="725.88" x2="215.21" y1="709.75" x1="208.67" id="linear-gradient-3"/>
  <linearGradient xlink:href="#linear-gradient" y2="589.18" x2="233.57" y1="546.98" x1="169.07" id="linear-gradient-4"/>
  <linearGradient xlink:href="#linear-gradient" y2="649.63" x2="108.05" y1="575.63" x1="282.3" id="linear-gradient-5"/>
  <linearGradient xlink:href="#linear-gradient" y2="516.69" x2="170.58" y1="503.24" x1="202.47" id="linear-gradient-6"/>
 </defs>
 <title>12</title>
 <g>
  <title>background</title>
  <rect fill="none" id="canvas_background" height="302" width="322" y="-1" x="-1"/>
 </g>
 <g>
  <title>Layer 1</title>
  <path stroke="null" id="svg_1" opacity="0.18" fill="#68e1fd" d="m318.065565,193.359434a6.14776,6.312202 0 0 1 -0.119821,0.946357a111.470782,114.452431 0 0 1 -7.253804,28.759793a103.710041,106.484104 0 0 1 -8.405933,16.82623a100.539382,103.228636 0 0 1 -31.135133,32.176142c-31.623636,20.744148 -70.482642,25.949113 -107.986744,27.444357c-29.632757,1.164019 -59.910706,0.227126 -87.985785,-9.463571c-19.09769,-6.6245 -37.209157,-17.800978 -50.638372,-33.0184a88.695496,91.067947 0 0 1 -15.512264,-24.226743l0,0a88.326815,90.689404 0 0 1 -4.433392,-12.823139a95.036814,97.578884 0 0 1 -2.119917,-10.002995a109.747197,112.682744 0 0 1 -1.474725,-19.381394c0,-3.255469 0.147473,-6.520401 0.396332,-9.756942c0.801882,-10.409928 2.829629,-20.980738 8.092554,-29.923812c9.217032,-15.614893 22.120876,-28.059489 30.296383,-44.478785c9.069559,-18.302547 10.359944,-39.131867 18.830396,-57.576368c9.770054,-21.151082 27.51284,-31.485302 47.329458,-39.254894c2.838846,-1.116701 5.723777,-2.176621 8.627142,-3.208151c22.959626,-8.148135 51.799718,-9.094492 74.473616,0.520496c2.193654,0.946357 4.304354,1.958959 6.332101,3.066197a73.56113,75.528763 0 0 1 6.599395,4.069336a91.580427,94.030045 0 0 1 11.060438,9.037711c2.553118,2.403747 4.986414,4.939984 7.373625,7.570857c10.138735,11.204868 19.023953,23.914445 29.595889,34.930042c9.309202,9.709624 20.664585,17.034428 30.692716,25.99643a110.125095,113.07075 0 0 1 32.757331,51.83198a117.710712,120.859269 0 0 1 4.608516,49.939266z"/>
  <path id="svg_2" opacity="0.39" fill="#68e1fd" d="m113.83,26.79a22.93,22.93 0 0 0 -4.3,4.5a112.57,112.57 0 0 1 52.62,-22.87c-8.74,5.13 -18.07,10.93 -21.78,20.36a7.37,7.37 0 0 0 3.19,-2a97.82,97.82 0 0 1 27,-17.12l-5.38,8.21l12.93,-9.26a8.79,8.79 0 0 0 -3.11,5.79a58.93,58.93 0 0 1 11,-6.69l-1.63,4.73a40.13,40.13 0 0 1 10.19,-4.94c-0.61,0.43 0.31,1.27 1,1.43c5.26,1.1 10.62,2.21 16,1.7c-1,0.1 -3.48,-1.78 -4.44,-2.23q-2.67,-1.23 -5.42,-2.27a80,80 0 0 0 -10.37,-3.13a56.33,56.33 0 0 0 -19.7,-1.33a108.73,108.73 0 0 0 -38.73,12.11a105.83,105.83 0 0 0 -19.07,13.01z"/>
  <path id="svg_3" opacity="0.39" fill="#68e1fd" d="m344,204.32a6.67,6.67 0 0 1 -0.13,1a104.15,104.15 0 0 0 -33.41,-3c-11.85,0.87 -23.48,3.76 -35.32,4.72c-18.27,1.48 -37.43,-1.53 -54.44,5.33c-10,4 -19.45,11.5 -30.2,10.5c-5.69,-0.54 -10.88,-3.44 -16.48,-4.61c-16,-3.33 -31.44,7.82 -47.75,9.16c-5.33,0.44 -10.68,-0.19 -16,-0.7a362,362 0 0 0 -103.44,5.15l-2.94,0.56a103.11,103.11 0 0 1 -2.3,-10.57a119.07,119.07 0 0 1 -1.59,-20.48l1,-0.29c9.39,-2.69 18.28,-7 27.7,-9.94a170.46,170.46 0 0 1 62.63,-7.32c5.89,0.41 11.84,1.14 17.67,0.21c8.06,-1.29 15.28,-5.62 23.06,-8.08c22.87,-7.23 47.87,2.26 71.54,-1.59c12.66,-2.06 24.56,-7.89 37.33,-9.08c10.45,-1 21,1.22 31.45,1c9.89,-0.27 19.58,-2.72 29.17,-5.16l37.54,-9.55a127.8,127.8 0 0 1 4.91,52.74z"/>
  <path id="svg_4" fill="#fff" d="m344,204.32a121.44,121.44 0 0 1 -8,31.42a118.08,118.08 0 0 1 -24.2,-5.38c-7,-2.35 -15.31,-5.2 -21.25,-0.79c-1.8,1.33 -3.13,3.2 -4.89,4.56c-7.17,5.57 -17.64,0.87 -24.67,-4.89s-14.5,-13 -23.54,-12.1c-10.69,1 -17.07,12.75 -27.06,16.7c-11,4.35 -23,-1.59 -34.65,-3.71a53.75,53.75 0 0 0 -36.86,6.68c-3.34,2 -6.52,4.4 -10.24,5.56c-13,4.08 -25.33,-8 -38.78,-10.41c-11.46,-2.05 -22.8,3.11 -33.95,6.49a113.9,113.9 0 0 1 -25.23,4.64c-5.83,0.41 -16.24,-2.08 -21.09,2.09a6.51,6.51 0 0 0 -0.83,0.83l0,0a99.6,99.6 0 0 1 -7.11,-24.13a54.7,54.7 0 0 1 22.71,-14.17c21.71,-6.88 45,0.31 67.25,5.18c5.57,1.21 11.26,2.29 17,1.83c6.52,-0.52 12.7,-3 18.86,-5.24c11.58,-4.15 23.85,-7.31 36.08,-6c17.44,1.8 34.83,12.42 51.44,6.82c6.38,-2.16 11.87,-6.57 18.38,-8.31c8.23,-2.2 16.91,0.14 25.1,2.47c19.63,5.6 41,-14.92 61.11,-11.29c5.88,1.06 11.24,4 16.48,6.83l7.94,4.32z"/>
  <path stroke="null" id="svg_5" opacity="0.18" fill="#68e1fd" d="m320.000001,231.721559a110.11345,94.488837 0 0 1 -8.924944,14.930781a106.747024,91.600092 0 0 1 -33.057522,28.55155c-33.576186,18.407352 -74.834478,23.025986 -114.654211,24.352793c-31.462384,1.032894 -63.609796,0.20154 -93.418325,-8.397515c-20.276846,-5.87826 -39.506576,-15.795725 -53.764957,-29.298929a94.171856,80.809285 0 0 1 -16.470044,-21.497638a6.370766,5.466782 0 0 1 0.812248,-0.696994c4.746269,-3.501764 14.933623,-1.410782 20.638932,-1.755081a111.463935,95.647694 0 0 0 24.690387,-3.896447c10.911527,-2.83836 22.008989,-7.171478 33.272816,-5.449987c13.162335,2.015404 25.199265,12.167999 37.950583,8.741813c3.640438,-0.974112 6.752424,-2.989515 10.020989,-4.669018a52.600408,45.136642 0 0 1 36.071647,-5.60954c11.342116,1.780273 23.085463,6.768397 33.850198,3.115478c9.786122,-3.359006 16.019882,-13.167303 26.481247,-14.02385c8.80751,-0.713789 16.156888,5.332422 23.036532,10.160993s17.125714,8.783801 24.142364,4.106385c1.722358,-1.142062 3.023912,-2.712397 4.785414,-3.829267c5.812957,-3.703304 13.935438,-1.310012 20.79551,0.663404a115.476245,99.090675 0 0 0 23.741133,4.501068z"/>
  <path id="svg_6" fill="url(#linear-gradient)" d="m200.33,286.41c-4.08,0.28 -8.31,0.27 -12,1.95c-2.59,1.16 -5.16,3.16 -7.93,2.56a14.2,14.2 0 0 1 -3.23,-1.45c-4.61,-2.27 -10.07,-1.46 -15.13,-0.6c-1.83,-1.71 -1.06,-4.76 0.17,-6.94s2.84,-4.5 2.3,-6.94a18.72,18.72 0 0 1 -17.25,7.91a58.53,58.53 0 0 1 7,-11.54c0.94,-1.19 4.32,-4.88 5.86,-5.14c3.88,-0.65 3.93,3.33 7,4.33a5.5,5.5 0 0 0 2.79,-0.08a204.91,204.91 0 0 0 31.74,-9.18c4.68,-1.77 10,-3.71 14.48,-1.51c1,0.49 1.9,1.18 2.94,1.59c2.87,1.14 6.09,0.06 9,-0.93a132.79,132.79 0 0 1 28.54,-6.2c2.93,-0.31 6.32,-0.35 8.3,1.82a6.28,6.28 0 0 1 0.55,7a12.65,12.65 0 0 1 -5.42,5c-7.35,4 -16.08,4.41 -24.17,6.61c-7,1.91 -13.28,5.31 -19.71,8.64c-5.16,2.69 -10.05,2.69 -15.83,3.1z"/>
  <path id="svg_7" fill="#68e1fd" d="m160.54,275.88c-1.55,1.24 -3.15,2.43 -4.78,3.57c-3.06,2.13 -6.32,4.11 -10,4.89a29.54,29.54 0 0 1 -6.44,0.44a14.4,14.4 0 0 1 -3.46,-0.33c-1.41,-0.35 -2.87,-1.33 -3,-2.78a2.15,2.15 0 0 1 0.14,-0.67a4.6,4.6 0 0 1 2.22,-2.51c3,-1.88 6.33,-1.86 9.5,-3.34a61,61 0 0 1 12.63,-4.61a6.91,6.91 0 0 1 3.1,-0.15a2.78,2.78 0 0 1 2.09,1.86a0.61,0.61 0 0 1 0,0.18c0.3,1.4 -0.9,2.57 -2,3.45z"/>
  <path id="svg_8" fill="url(#linear-gradient-2)" d="m162.56,272.25a5.36,5.36 0 0 1 -2,2.53c-1.55,1.24 -3.15,2.43 -4.78,3.57c-3.06,2.13 -6.32,4.11 -10,4.88a29.09,29.09 0 0 1 -6.45,0.48a15.49,15.49 0 0 1 -3.46,-0.33a3.75,3.75 0 0 1 -2.87,-2.38a4.6,4.6 0 0 1 2.22,-2.51c3,-1.88 6.33,-1.86 9.5,-3.34a60.84,60.84 0 0 1 12.62,-4.64a6.91,6.91 0 0 1 3.1,-0.15a2.74,2.74 0 0 1 2.12,1.89z"/>
  <path id="svg_9" fill="#68e1fd" d="m184.6,279.8c-1.55,1.24 -3.15,2.43 -4.78,3.57c-3.06,2.13 -6.32,4.11 -10,4.89a29.54,29.54 0 0 1 -6.44,0.44a14.4,14.4 0 0 1 -3.46,-0.33c-1.41,-0.35 -2.87,-1.33 -3,-2.78a2.15,2.15 0 0 1 0.07,-0.67a4.54,4.54 0 0 1 2.34,-2.51c3,-1.88 6.33,-1.86 9.5,-3.34a61,61 0 0 1 12.63,-4.61a7.06,7.06 0 0 1 3.1,-0.15a2.78,2.78 0 0 1 2.09,1.86a0.61,0.61 0 0 1 0,0.18c0.25,1.36 -0.95,2.57 -2.05,3.45z"/>
  <path id="svg_10" fill="url(#linear-gradient-3)" d="m186.62,276.17a5.36,5.36 0 0 1 -2,2.53c-1.55,1.24 -3.15,2.43 -4.78,3.57c-3.06,2.13 -6.32,4.11 -10,4.88a28.93,28.93 0 0 1 -6.44,0.45a15.49,15.49 0 0 1 -3.46,-0.33a3.75,3.75 0 0 1 -2.88,-2.35a4.58,4.58 0 0 1 2.27,-2.51c3,-1.88 6.33,-1.86 9.5,-3.34a61,61 0 0 1 12.63,-4.61a7.06,7.06 0 0 1 3.1,-0.15a2.74,2.74 0 0 1 2.06,1.86z"/>
  <path id="svg_11" fill="#ffb79c" d="m161.33,268.81a16.7,16.7 0 0 1 0.33,3.38a4.14,4.14 0 0 1 -1.34,3.08c-1,0.79 -2.26,0.93 -3.4,1.4a11.45,11.45 0 0 0 -2.57,1.67a37.05,37.05 0 0 1 -5,3.72a9.36,9.36 0 0 1 -6,1.32c-0.66,-0.15 -1.33,-0.27 -2,-0.36c-1,-0.07 -2.08,0.28 -3.12,0.29a2.4,2.4 0 0 1 -2.49,-1.49a2,2 0 0 0 -0.24,-0.83c-0.31,-0.4 -1,-0.29 -1.4,-0.54a1.3,1.3 0 0 1 -0.2,-1.81l0.08,-0.09a4.13,4.13 0 0 1 1.89,-1c5,-1.8 11.47,-5.7 13.93,-10.68c3.26,-6.59 2.74,-14 1.67,-21a218.05,218.05 0 0 1 -1.81,-49.76a15.07,15.07 0 0 1 0.61,-3.65a7.65,7.65 0 0 1 14.45,-0.11c1.08,3 0.2,6.31 -0.51,9.41c-1.23,5.37 -1.92,11.08 -0.19,16.3c0.79,2.42 2.08,4.66 2.71,7.12c1,3.93 0.25,8.08 -0.51,12.07l-3.77,19.46c-0.56,2.94 -1.51,6 -1.48,9a21.49,21.49 0 0 0 0.36,3.1z"/>
  <path id="svg_12" fill="#ffb79c" d="m185.13,271.52a18.26,18.26 0 0 1 0.33,3.38a4.11,4.11 0 0 1 -1.35,3.08c-1,0.79 -2.26,0.93 -3.4,1.4a11.17,11.17 0 0 0 -2.56,1.67a37.05,37.05 0 0 1 -5,3.72a9.36,9.36 0 0 1 -6,1.32c-0.66,-0.15 -1.33,-0.27 -2,-0.36c-1,-0.07 -2.07,0.28 -3.12,0.29a2.41,2.41 0 0 1 -2.49,-1.49a2.36,2.36 0 0 0 -0.21,-0.82c-0.31,-0.4 -1,-0.29 -1.4,-0.54a1.29,1.29 0 0 1 -0.21,-1.81l0.08,-0.09a4.16,4.16 0 0 1 1.9,-1c5.05,-1.8 11.47,-5.7 13.93,-10.68c3.25,-6.59 2.73,-14 1.66,-21a218,218 0 0 1 -1.8,-49.76a14.58,14.58 0 0 1 0.6,-3.65a7.66,7.66 0 0 1 14.46,-0.11c1.07,3 0.2,6.31 -0.52,9.41c-1.22,5.37 -1.91,11.08 -0.19,16.31c0.8,2.41 2.09,4.65 2.72,7.11c1,3.93 0.25,8.08 -0.52,12.07l-3.71,19.48c-0.56,2.94 -1.52,6.05 -1.48,9a21.11,21.11 0 0 0 0.28,3.07z"/>
  <path id="svg_13" fill="#68e1fd" d="m139.54,127.82q0.9,2.75 2,5.41a2,2 0 0 0 0.69,1a2,2 0 0 0 1.66,-0.07c2,-0.71 4.49,-1.46 6.06,-3c0.71,-0.67 4.38,-3.49 4.38,-4l0,-21.16c0,-1.34 0.66,-4.85 0,-6c-0.44,-0.79 -1.06,-0.62 -1.89,-0.14a93.53,93.53 0 0 0 -15.31,11.23a2.18,2.18 0 0 0 -0.88,2.45a78.66,78.66 0 0 0 3.29,14.28z"/>
  <path id="svg_14" fill="url(#linear-gradient-4)" d="m151.44,122.35a12.85,12.85 0 0 0 0.8,-4.47c-1.24,2.07 -2.61,4.25 -4.8,5.23c-1.28,0.57 -2.74,0.68 -4,1.36c-2.29,1.28 -3.12,4.28 -2.71,6.87c0.24,1.5 1.11,3.18 2.63,3.32a3.77,3.77 0 0 0 1.75,-0.39c2.34,-1 3.94,-1.56 4.41,-4c0.57,-2.64 1.14,-5.27 1.92,-7.92z"/>
  <path id="svg_15" fill="#473f47" d="m194.39,185.07l-0.45,24.84a54,54 0 0 1 -24.79,2.4a6.48,6.48 0 0 1 -2.84,-0.89c-1.64,-1.14 -1.91,-3.31 -1.86,-5.37a5.6,5.6 0 0 1 -4.46,4.12c-2.45,0.48 -5,-0.29 -7.33,-1.09q-4.74,-1.62 -9.38,-3.47a2,2 0 0 1 -1.65,-2.3a2,2 0 0 1 0.17,-0.53a193.94,193.94 0 0 0 4,-21.91c0.51,-4.12 -0.73,-16.35 3.72,-17.56l0.45,-0.09c2.62,-0.38 6.86,1.42 9.27,1.89c3.62,0.71 7.26,1.32 10.93,1.72a80.56,80.56 0 0 0 8.07,0.51a57.12,57.12 0 0 0 14.39,-1.53l0,0.19c1.99,6.1 1.88,12.71 1.76,19.07z"/>
  <path id="svg_16" fill="#68e1fd" d="m197.33,136.71l0,0.81c-0.06,1 -0.13,2 -0.2,3c-0.57,7.56 -1.21,15.41 -3.36,22.71a22.89,22.89 0 0 1 -1,2.77a6.34,6.34 0 0 1 -2.56,3.06c-3.29,1.92 -7.75,1.87 -12,1.39c-2.15,-0.24 -4.23,-0.59 -6,-0.85c-7.15,-1 -14.49,-2.06 -20.83,-5.53a11.18,11.18 0 0 1 -1.32,-0.82a4.53,4.53 0 0 1 -1.69,-2.08c-0.56,-1.55 0.11,-3.24 0.6,-4.82c2.14,-7 0.44,-14.48 0.47,-21.67c0,-1.31 0.17,-2.61 0.17,-3.92a5.55,5.55 0 0 0 -0.08,-1c-0.18,-1.82 -0.65,-3.64 -0.84,-5.46a40.79,40.79 0 0 1 0.26,-11.2a43.34,43.34 0 0 1 3.51,-11.39c1.56,-3.13 4.38,-4.45 7.55,-6a26.36,26.36 0 0 1 8.49,-2.89a21.78,21.78 0 0 1 6.29,0.35c6.39,1.17 14.79,4.5 19.14,9.53c3.27,3.78 3.66,9.18 3.76,14.19q0.18,9.89 -0.36,19.82z"/>
  <path id="svg_17" fill="url(#linear-gradient-5)" d="m197.33,136.71l0,0.81c-0.06,1 -0.13,2 -0.2,3c-0.57,7.56 -1.21,15.41 -3.36,22.71a22.89,22.89 0 0 1 -1,2.77c1.87,6.13 1.76,12.69 1.64,19.1l-0.41,24.84a54.75,54.75 0 0 1 -13.63,2.77c5.21,-12.59 3.92,-27.12 2.49,-40.81c-1.33,1.4 -3.91,0.35 -4.61,-1.44a2.09,2.09 0 0 1 -0.08,-0.23a4.63,4.63 0 0 1 0.15,-2.85a9.17,9.17 0 0 1 1.52,-2.71a22.74,22.74 0 0 1 6.24,-5.23a5.47,5.47 0 0 0 1.84,-1.47a4.68,4.68 0 0 0 0.62,-1.56a37.92,37.92 0 0 0 -0.26,-19.78c-1.08,-3.78 -2.78,-7.62 -2.18,-11.49c-0.35,4 7,9.15 9.7,10.76c0.53,0.27 1.02,0.54 1.53,0.81z"/>
  <path id="svg_18" fill="#ffb79c" d="m162.49,83.88a4.57,4.57 0 0 0 2.42,2.22c1.23,0.5 2.61,0.57 3.61,1.48a6.31,6.31 0 0 1 1.62,3.49c0.29,1.34 0.34,2.5 -1.24,3c-1,0.35 -2.19,0.35 -3,1a2.84,2.84 0 0 0 -0.83,2.59a7.06,7.06 0 0 0 1.13,2.59a8.77,8.77 0 0 0 2.49,2.69c2,1.25 4.55,1 6.79,0.34c3.36,-1 6.68,-3.45 7.19,-6.93c-3.84,-1.73 -5.12,-6.85 -3.39,-10.47c1.5,-3.13 3.12,-6.26 3.71,-9.72a8,8 0 0 0 -0.4,-4.78a8.2,8.2 0 0 0 -5.26,-3.82a15.38,15.38 0 0 0 -8.74,-0.09c-1.07,0.37 -1.39,1.1 -1.89,2q-1.14,2.22 -2.09,4.53c-0.71,1.75 -1.33,3.53 -1.89,5.35a6.27,6.27 0 0 0 -0.23,4.53z"/>
  <path id="svg_19" fill="#473f47" d="m170.17,68.62c1.6,1.43 4.36,0.48 6.09,1.75s1.58,3.75 1.59,5.56c0,0.33 -0.56,4 -1,3.77c0.7,0.5 1.24,-0.87 2,-1.26s1.89,0.75 1.71,1.75a5.94,5.94 0 0 1 -1.6,2.52a8.55,8.55 0 0 0 -1.9,5.33c0,0.45 0.17,1 0.62,1.06s1,-0.63 1.31,-0.87c1.85,-1.25 4.08,-1.77 5.88,-3.09a5.46,5.46 0 0 0 2.35,-3.59a11.2,11.2 0 0 1 0.29,-3a8.27,8.27 0 0 1 1.33,-1.78a2,2 0 0 0 0.44,-2c-0.15,-0.3 -0.42,-0.53 -0.57,-0.82a3,3 0 0 1 0,-2a6.67,6.67 0 0 0 -1,-5.38c-0.89,-1.15 -2.23,-1.85 -3.26,-2.88s-1.71,-2.69 -0.91,-3.91c0.31,-0.46 0.83,-0.9 0.72,-1.45s-0.49,-0.65 -0.87,-0.81a5.71,5.71 0 0 0 -5.3,0.59c0.6,-0.68 -0.22,-1.83 -1.13,-1.87a3.75,3.75 0 0 0 -2.38,1.18a1.43,1.43 0 0 0 -1.25,-1.17a3.46,3.46 0 0 0 -1.79,0.31a10,10 0 0 0 -4.54,3.27a6.38,6.38 0 0 0 -1.14,5.37a3,3 0 0 0 1.79,2.15a9.12,9.12 0 0 1 1.54,0.38a6.85,6.85 0 0 1 0.98,0.89z"/>
  <path id="svg_20" fill="#e2937a" d="m167.65,86.94l0.46,0.14a0.56,0.56 0 0 1 0.36,0.17a0.54,0.54 0 0 1 0.05,0.33a6.31,6.31 0 0 1 1.62,3.49c0.29,1.36 0.58,2.7 0.88,4a33.14,33.14 0 0 0 3.28,-8.24a32.14,32.14 0 0 1 -6.65,0.11z"/>
  <path id="svg_21" fill="#68e1fd" d="m212.64,120.62a2,2 0 0 1 0.53,1.07a2,2 0 0 1 -0.42,1.07a81.5,81.5 0 0 1 -13.09,15.24a1.77,1.77 0 0 1 -2.46,0.48a1.81,1.81 0 0 1 -0.33,-0.29c-6.15,-4.56 -12.47,-10 -14.12,-17.46c-1.17,-5.3 -0.61,-24.9 8.78,-20.8c4.15,1.82 7.83,6.23 11,9.38a140.42,140.42 0 0 1 10.11,11.31z"/>
  <rect id="svg_22" fill="#7f5e54" height="9.64" width="1.96" y="82.43" x="152.7"/>
  <path id="svg_23" fill="#68e1fd" d="m154.57,68.76l0,0a3.58,3.58 0 0 1 3.58,3.58l0,0l0,10.37a1.36,1.36 0 0 1 -1.36,1.36l-4.46,0a1.36,1.36 0 0 1 -1.33,-1.36l0,-10.37a3.58,3.58 0 0 1 3.58,-3.58l-0.01,0z"/>
  <path id="svg_24" fill="#68e1fd" d="m153.33,68.76l0,0a3.58,3.58 0 0 1 3.58,3.58l0,0l0,10.37a1.36,1.36 0 0 1 -1.36,1.36l-4.42,0a1.36,1.36 0 0 1 -1.37,-1.35l0,0l0,-10.38a3.59,3.59 0 0 1 3.57,-3.58z"/>
  <path id="svg_25" fill="url(#linear-gradient-6)" d="m153.33,68.76l0,0a3.58,3.58 0 0 1 3.58,3.58l0,0l0,10.37a1.36,1.36 0 0 1 -1.36,1.36l-4.42,0a1.36,1.36 0 0 1 -1.37,-1.35l0,0l0,-10.38a3.59,3.59 0 0 1 3.57,-3.58z"/>
  <path id="svg_26" fill="#ffb79c" d="m219.23,136.22c1.45,2.5 3,5.22 2.66,8.09c-0.38,3.6 -3.4,6.25 -6.21,8.53l-21.21,17.16a3.4,3.4 0 0 1 -0.77,0.53a4.86,4.86 0 0 1 -2,0.28a11.77,11.77 0 0 0 -8,3.5a9.29,9.29 0 0 1 6.41,-14.78a14.1,14.1 0 0 0 3.23,-0.43a8.13,8.13 0 0 0 2.47,-1.66l11.63,-10.09c0.65,-0.56 1.36,-1.28 1.2,-2.13a2.63,2.63 0 0 0 -0.95,-1.32a32.57,32.57 0 0 1 -6.71,-8.72a5.39,5.39 0 0 1 -0.76,-2.34a5.07,5.07 0 0 1 1.11,-2.86c1.59,-2.36 6.14,-8.31 9.56,-7.11c3.19,1.13 6.66,10.46 8.34,13.35z"/>
  <path id="svg_27" fill="#ffb79c" d="m149.09,88.25a7.58,7.58 0 0 1 6.52,-1.82a4.39,4.39 0 0 1 2.53,1.32a5.67,5.67 0 0 1 0.92,4.14a27.67,27.67 0 0 1 -0.67,4.44a8.26,8.26 0 0 1 -1.39,3.35a3.48,3.48 0 0 1 -3.21,1.37l-7.84,21a53.58,53.58 0 0 1 -4.31,9.59a9.37,9.37 0 0 1 -2.82,3.15a4.12,4.12 0 0 1 -4.06,0.34a4.57,4.57 0 0 1 -1.67,-1.71c-1.79,-3 -1.3,-6.93 0.08,-10.17s3.57,-6.06 5.18,-9.19c2.25,-4.34 3.35,-9.14 5.25,-13.63c0.83,-2 2.47,-3.89 3.05,-5.89c0.68,-2.44 0.35,-4.39 2.44,-6.29z"/>
  <path id="svg_28" fill="#68e1fd" d="m164.79,281.27a11.35,11.35 0 0 1 6.75,1.19a7.38,7.38 0 0 1 1.7,1.35a1.5,1.5 0 0 0 1,0.66c0.66,0 1,-0.8 0.92,-1.46a3.19,3.19 0 0 0 -1.7,-2.18a7.55,7.55 0 0 0 -2.76,-0.74a21.49,21.49 0 0 0 -5.55,0.12a4.61,4.61 0 0 0 -0.07,-1.57a1.32,1.32 0 0 0 -1.23,-1.11a1.46,1.46 0 0 0 -1.33,1.28a1.39,1.39 0 0 1 -0.09,0.57a2.83,2.83 0 0 1 -1,1.29l-1,0.93a5.42,5.42 0 0 0 -1.69,2.7c0,0.3 0,0.67 0.27,0.78a0.18,0.18 0 0 0 0.2,0a0.23,0.23 0 0 0 0.06,-0.16a4,4 0 0 1 1.66,-2.54a6.08,6.08 0 0 1 2.91,-1l0.95,-0.11z"/>
  <path id="svg_29" fill="#68e1fd" d="m140.72,277.35a11.44,11.44 0 0 1 6.75,1.19a7.76,7.76 0 0 1 1.71,1.36a1.6,1.6 0 0 0 1,0.66c0.66,0 1,-0.81 0.92,-1.47a3.24,3.24 0 0 0 -1.77,-2.18a7.29,7.29 0 0 0 -2.75,-0.73a21.48,21.48 0 0 0 -5.55,0.11a4.88,4.88 0 0 0 -0.07,-1.57a1.32,1.32 0 0 0 -1.24,-1.11a1.47,1.47 0 0 0 -1.33,1.28a1.39,1.39 0 0 1 -0.08,0.57a2.83,2.83 0 0 1 -1,1.29l-1,0.93a5.42,5.42 0 0 0 -1.69,2.7c0,0.3 0,0.67 0.27,0.78a0.17,0.17 0 0 0 0.19,0a0.24,0.24 0 0 0 0.07,-0.16a4,4 0 0 1 1.66,-2.53a6,6 0 0 1 2.91,-1l1,-0.12z"/>
  <path id="svg_30" opacity="0.39" fill="#68e1fd" d="m206,11.32l0.57,0a41.69,41.69 0 0 0 4.31,-0.73a53.69,53.69 0 0 1 9.06,6l10.62,8.67l-7,-3.51a21.78,21.78 0 0 1 5,16.7a61.86,61.86 0 0 0 -6.42,-12.51c-2.74,-3.82 -6.46,-7.09 -11,-8.46a37.33,37.33 0 0 1 8.37,22.68c-1.41,-7.93 -7.44,-14.12 -13.18,-19.77c-1.09,-1.08 -2.88,-3.59 -4.5,-3.19c1.07,3.49 2.76,6.86 4,10.3c1.17,3.21 1.81,7.33 3.48,10.21a156.69,156.69 0 0 0 -13,-19.27a69.28,69.28 0 0 0 7.39,19.83l-13.7,-20a71,71 0 0 0 6.49,22.12a45.23,45.23 0 0 1 -12.2,-18a60.29,60.29 0 0 0 5.71,22.61c-7.7,-5.43 -10.12,-15.58 -12,-24.82a126.47,126.47 0 0 0 -0.06,27.23a49.71,49.71 0 0 1 -6.11,-24a120.85,120.85 0 0 0 -4.28,27.77a86.76,86.76 0 0 1 -1.78,-28.19c-5.84,9.83 -8.19,21.29 -10.45,32.5a73,73 0 0 1 3.57,-29.37a132.19,132.19 0 0 0 -20,37.11c0.34,-11.6 6.89,-22 13.23,-31.69q-17.24,12.32 -33.25,26.22c1.94,-4 5.25,-7.11 8.52,-10.11q8.63,-7.93 17.56,-15.55a88.63,88.63 0 0 1 14.17,-10.34a73.11,73.11 0 0 1 17.33,-6.52c6.58,-1.72 13.52,-3.42 20.32,-3.91c3.06,-0.27 6.17,0.19 9.23,-0.01z"/>
  <path id="svg_31" opacity="0.39" fill="#68e1fd" d="m212.68,28.93c0.41,0.77 0.78,1.56 1.12,2.36c-0.36,-0.79 -0.73,-1.58 -1.12,-2.36z"/>
  <path id="svg_32" opacity="0.39" fill="#68e1fd" d="m246.62,57.62a157.93,157.93 0 0 1 -14.72,-12.37a42.21,42.21 0 0 0 6.31,19.46a31,31 0 0 1 -10.88,-14.77a67.27,67.27 0 0 0 12.76,27.19a48.07,48.07 0 0 1 -16.36,-17.34c-0.85,9.8 2.54,19.41 5.87,28.66a67.07,67.07 0 0 1 -14,-22.62a74.68,74.68 0 0 0 1.47,33.57a62.75,62.75 0 0 1 -7.74,-37.18a55.91,55.91 0 0 1 18.26,-35.62c0.56,-0.49 1.45,-1.35 2.45,-2.2c2.77,2.54 5.41,5.22 8,8a32.62,32.62 0 0 0 8.65,14.87a140.18,140.18 0 0 0 -11.33,-9q5.21,9.92 11.26,19.35z"/>
 </g>
</svg>