<svg width="320" height="300" xmlns="http://www.w3.org/2000/svg" xmlns:xlink="http://www.w3.org/1999/xlink" class="illustration">
 <defs>
  <linearGradient y2="-2.234604" x2="2.193356" y1="2.357457" x1="-0.762431" id="linear-gradient">
   <stop offset="0.01"/>
   <stop stop-opacity="0.69" offset="0.13"/>
   <stop stop-opacity="0.32" offset="0.25"/>
   <stop stop-opacity="0" offset="1"/>
  </linearGradient>
  <linearGradient xlink:href="#linear-gradient" y2="721.97" x2="191.13" y1="705.84" x1="184.6" id="linear-gradient-2"/>
  <linearGradient xlink:href="#linear-gradient" y2="725.88" x2="215.21" y1="709.75" x1="208.67" id="linear-gradient-3"/>
  <linearGradient xlink:href="#linear-gradient" y2="589.18" x2="233.57" y1="546.98" x1="169.07" id="linear-gradient-4"/>
  <linearGradient xlink:href="#linear-gradient" y2="649.63" x2="108.05" y1="575.63" x1="282.3" id="linear-gradient-5"/>
  <linearGradient xlink:href="#linear-gradient" y2="516.69" x2="170.58" y1="503.24" x1="202.47" id="linear-gradient-6"/>
 </defs>
 <title>12</title>
 <g>
  <title>background</title>
  <rect fill="none" id="canvas_background" height="302" width="322" y="-1" x="-1"/>
 </g>
 <g>
  <title>Layer 1</title>
  <path stroke="null" id="svg_1" opacity="0.18" fill="#68e1fd" d="m318.063131,193.359434a6.167102,6.312202 0 0 1 -0.120198,0.946357a111.821492,114.452431 0 0 1 -7.276626,28.759793a104.036335,106.484104 0 0 1 -8.43238,16.82623a100.8557,103.228636 0 0 1 -31.233091,32.176142c-31.72313,20.744148 -70.704395,25.949113 -108.326493,27.444357c-29.725988,1.164019 -60.099198,0.227126 -88.262607,-9.463571c-19.157775,-6.6245 -37.326225,-17.800978 -50.797691,-33.0184a88.974551,91.067947 0 0 1 -15.561069,-24.226743l0,0a88.60471,90.689404 0 0 1 -4.447341,-12.823139a95.33582,97.578884 0 0 1 -2.126587,-10.002995a110.092485,112.682744 0 0 1 -1.479365,-19.381394c0,-3.255469 0.147936,-6.520401 0.397579,-9.756942c0.804405,-10.409928 2.838531,-20.980738 8.118015,-29.923812c9.24603,-15.614893 22.190473,-28.059489 30.391702,-44.478785c9.098094,-18.302547 10.392538,-39.131867 18.88964,-57.576368c9.800792,-21.151082 27.599401,-31.485302 47.478366,-39.254894c2.847777,-1.116701 5.741785,-2.176621 8.654285,-3.208151c23.031862,-8.148135 51.962691,-9.094492 74.707926,0.520496c2.200555,0.946357 4.317896,1.958959 6.352023,3.066197a73.792569,75.528763 0 0 1 6.620158,4.069336a91.868559,94.030045 0 0 1 11.095237,9.037711c2.56115,2.403747 5.002102,4.939984 7.396824,7.570857c10.170633,11.204868 19.083807,23.914445 29.689004,34.930042c9.338491,9.709624 20.7296,17.034428 30.789281,25.99643a110.471572,113.07075 0 0 1 32.860392,51.83198a118.081055,120.859269 0 0 1 4.623015,49.939266z"/>
  <path id="svg_2" opacity="0.39" fill="#68e1fd" d="m102.829736,27.790024a22.93,22.93 0 0 0 -4.3,4.5a112.57,112.57 0 0 1 52.62,-22.87c-8.74,5.13 -18.07,10.93 -21.78,20.36a7.37,7.37 0 0 0 3.19,-2a97.82,97.82 0 0 1 27,-17.12l-5.38,8.21l12.93,-9.26a8.79,8.79 0 0 0 -3.11,5.79a58.93,58.93 0 0 1 11,-6.69l-1.63,4.73a40.13,40.13 0 0 1 10.19,-4.94c-0.61,0.43 0.31,1.27 1,1.43c5.26,1.1 10.62,2.21 16,1.7c-1,0.1 -3.48,-1.78 -4.44,-2.23q-2.67,-1.23 -5.42,-2.27a80,80 0 0 0 -10.37,-3.13a56.33,56.33 0 0 0 -19.7,-1.33a108.73,108.73 0 0 0 -38.73,12.11a105.83,105.83 0 0 0 -19.07,13.01z"/>
  <path stroke="null" id="svg_3" opacity="0.39" fill="#68e1fd" d="m320.061594,204.32a6.186462,6.67 0 0 1 -0.120576,1a96.599703,104.15 0 0 0 -30.987961,-3c-10.990941,0.87 -21.77783,3.76 -32.759496,4.72c-16.945526,1.48 -34.716533,-1.53 -50.493402,5.33c-9.275056,4 -18.039983,11.5 -28.010668,10.5c-5.277507,-0.54 -10.09126,-3.44 -15.285292,-4.61c-14.840089,-3.33 -29.160775,7.82 -44.28839,9.16c-4.943605,0.44 -9.905759,-0.19 -14.840089,-0.7a335.75701,362 0 0 0 -95.941174,5.15l-2.726866,0.56a95.635098,103.11 0 0 1 -2.133263,-10.57a110.438086,119.07 0 0 1 -1.474734,-20.48l0.927506,-0.29c8.709277,-2.69 16.954802,-7 25.691904,-9.94a158.102597,170.46 0 0 1 58.089673,-7.32c5.463008,0.41 10.981666,1.14 16.389023,0.21c7.475695,-1.29 14.172285,-5.62 21.388278,-8.08c21.212052,-7.23 44.399691,2.26 66.353747,-1.59c11.74222,-2.06 22.779536,-7.89 34.623782,-9.08c9.692433,-1 19.477617,1.22 29.17005,1c9.17303,-0.27 18.160559,-2.72 27.055337,-5.16l34.818558,-9.55a118.53521,127.8 0 0 1 4.554052,52.74z"/>
  <path stroke="null" id="svg_4" fill="#fff" d="m318.999399,204.32a112.571669,121.44 0 0 1 -7.415789,31.42a109.457038,118.08 0 0 1 -22.43276,-5.38c-6.488815,-2.35 -14.191965,-5.2 -19.698188,-0.79c-1.668552,1.33 -2.901427,3.2 -4.532901,4.56c-6.6464,5.57 -16.351814,0.87 -22.868438,-4.89s-13.441117,-13 -21.820958,-12.1c-9.909347,1 -15.823439,12.75 -25.083905,16.7c-10.196709,4.35 -21.320392,-1.59 -32.119634,-3.71a49.824829,53.75 0 0 0 -34.168246,6.68c-3.096092,2 -6.043868,4.4 -9.492209,5.56c-12.050656,4.08 -23.48024,-8 -35.948035,-10.41c-10.623117,-2.05 -21.134997,3.11 -31.470752,6.49a105.582289,113.9 0 0 1 -23.387543,4.64c-5.404256,0.41 -15.054051,-2.08 -19.549872,2.09a6.034598,6.51 0 0 0 -0.769388,0.83l0,0a92.326567,99.6 0 0 1 -6.590782,-24.13a50.705454,54.7 0 0 1 21.05157,-14.17c20.124596,-6.88 41.71381,0.31 62.338972,5.18c5.163243,1.21 10.437722,2.29 15.758551,1.83c6.043868,-0.52 11.772564,-3 17.482721,-5.24c10.734354,-4.15 22.108319,-7.31 33.445206,-6c16.166419,1.8 32.286489,12.42 47.68352,6.82c5.914091,-2.16 11.003176,-6.57 17.037774,-8.31c7.628992,-2.2 15.675123,0.14 23.267036,2.47c18.196491,5.6 38.005916,-14.92 56.647354,-11.29c5.450605,1.06 10.419183,4 15.276524,6.83l7.36017,4.32z"/>
  <path stroke="null" id="svg_5" opacity="0.18" fill="#68e1fd" d="m320.499617,231.221455a109.42579,94.488401 0 0 1 -8.869207,14.930712a106.080387,91.599669 0 0 1 -32.851077,28.551419c-33.366502,18.407268 -74.367136,23.025879 -113.938194,24.352681c-31.265901,1.03289 -63.212552,0.201539 -92.834926,-8.397476c-20.150217,-5.878233 -39.259857,-15.795653 -53.429194,-29.298794a93.583752,80.808912 0 0 1 -16.367188,-21.497539a6.33098,5.466757 0 0 1 0.807176,-0.696991c4.716629,-3.501748 14.840362,-1.410776 20.510042,-1.755073a110.767841,95.647253 0 0 0 24.536195,-3.896429c10.843384,-2.838347 21.871543,-7.171445 33.065027,-5.449962c13.080136,2.015394 25.041896,12.167943 37.713581,8.741773c3.617703,-0.974107 6.710256,-2.989501 9.958408,-4.668997a52.271918,45.136434 0 0 1 35.84638,-5.609514c11.271284,1.780265 22.941294,6.768366 33.638803,3.115464c9.725008,-3.35899 15.919838,-13.167242 26.315872,-14.023785c8.752507,-0.713785 16.055988,5.332397 22.892669,10.160946s17.018764,8.78376 23.991595,4.106366c1.711601,-1.142057 3.005027,-2.712385 4.755529,-3.829249c5.776655,-3.703287 13.848411,-1.310006 20.665642,0.663401a114.755095,99.090218 0 0 0 23.592869,4.501047z"/>
  <path id="svg_6" fill="url(#linear-gradient)" d="m200.33,286.41c-4.08,0.28 -8.31,0.27 -12,1.95c-2.59,1.16 -5.16,3.16 -7.93,2.56a14.2,14.2 0 0 1 -3.23,-1.45c-4.61,-2.27 -10.07,-1.46 -15.13,-0.6c-1.83,-1.71 -1.06,-4.76 0.17,-6.94s2.84,-4.5 2.3,-6.94a18.72,18.72 0 0 1 -17.25,7.91a58.53,58.53 0 0 1 7,-11.54c0.94,-1.19 4.32,-4.88 5.86,-5.14c3.88,-0.65 3.93,3.33 7,4.33a5.5,5.5 0 0 0 2.79,-0.08a204.91,204.91 0 0 0 31.74,-9.18c4.68,-1.77 10,-3.71 14.48,-1.51c1,0.49 1.9,1.18 2.94,1.59c2.87,1.14 6.09,0.06 9,-0.93a132.79,132.79 0 0 1 28.54,-6.2c2.93,-0.31 6.32,-0.35 8.3,1.82a6.28,6.28 0 0 1 0.55,7a12.65,12.65 0 0 1 -5.42,5c-7.35,4 -16.08,4.41 -24.17,6.61c-7,1.91 -13.28,5.31 -19.71,8.64c-5.16,2.69 -10.05,2.69 -15.83,3.1z"/>
  <path id="svg_7" fill="#68e1fd" d="m160.54,275.88c-1.55,1.24 -3.15,2.43 -4.78,3.57c-3.06,2.13 -6.32,4.11 -10,4.89a29.54,29.54 0 0 1 -6.44,0.44a14.4,14.4 0 0 1 -3.46,-0.33c-1.41,-0.35 -2.87,-1.33 -3,-2.78a2.15,2.15 0 0 1 0.14,-0.67a4.6,4.6 0 0 1 2.22,-2.51c3,-1.88 6.33,-1.86 9.5,-3.34a61,61 0 0 1 12.63,-4.61a6.91,6.91 0 0 1 3.1,-0.15a2.78,2.78 0 0 1 2.09,1.86a0.61,0.61 0 0 1 0,0.18c0.3,1.4 -0.9,2.57 -2,3.45z"/>
  <path id="svg_8" fill="url(#linear-gradient-2)" d="m162.56,272.25a5.36,5.36 0 0 1 -2,2.53c-1.55,1.24 -3.15,2.43 -4.78,3.57c-3.06,2.13 -6.32,4.11 -10,4.88a29.09,29.09 0 0 1 -6.45,0.48a15.49,15.49 0 0 1 -3.46,-0.33a3.75,3.75 0 0 1 -2.87,-2.38a4.6,4.6 0 0 1 2.22,-2.51c3,-1.88 6.33,-1.86 9.5,-3.34a60.84,60.84 0 0 1 12.62,-4.64a6.91,6.91 0 0 1 3.1,-0.15a2.74,2.74 0 0 1 2.12,1.89z"/>
  <path id="svg_9" fill="#68e1fd" d="m184.6,279.8c-1.55,1.24 -3.15,2.43 -4.78,3.57c-3.06,2.13 -6.32,4.11 -10,4.89a29.54,29.54 0 0 1 -6.44,0.44a14.4,14.4 0 0 1 -3.46,-0.33c-1.41,-0.35 -2.87,-1.33 -3,-2.78a2.15,2.15 0 0 1 0.07,-0.67a4.54,4.54 0 0 1 2.34,-2.51c3,-1.88 6.33,-1.86 9.5,-3.34a61,61 0 0 1 12.63,-4.61a7.06,7.06 0 0 1 3.1,-0.15a2.78,2.78 0 0 1 2.09,1.86a0.61,0.61 0 0 1 0,0.18c0.25,1.36 -0.95,2.57 -2.05,3.45z"/>
  <path id="svg_10" fill="url(#linear-gradient-3)" d="m186.62,276.17a5.36,5.36 0 0 1 -2,2.53c-1.55,1.24 -3.15,2.43 -4.78,3.57c-3.06,2.13 -6.32,4.11 -10,4.88a28.93,28.93 0 0 1 -6.44,0.45a15.49,15.49 0 0 1 -3.46,-0.33a3.75,3.75 0 0 1 -2.88,-2.35a4.58,4.58 0 0 1 2.27,-2.51c3,-1.88 6.33,-1.86 9.5,-3.34a61,61 0 0 1 12.63,-4.61a7.06,7.06 0 0 1 3.1,-0.15a2.74,2.74 0 0 1 2.06,1.86z"/>
  <path id="svg_11" fill="#ffb79c" d="m161.33,268.81a16.7,16.7 0 0 1 0.33,3.38a4.14,4.14 0 0 1 -1.34,3.08c-1,0.79 -2.26,0.93 -3.4,1.4a11.45,11.45 0 0 0 -2.57,1.67a37.05,37.05 0 0 1 -5,3.72a9.36,9.36 0 0 1 -6,1.32c-0.66,-0.15 -1.33,-0.27 -2,-0.36c-1,-0.07 -2.08,0.28 -3.12,0.29a2.4,2.4 0 0 1 -2.49,-1.49a2,2 0 0 0 -0.24,-0.83c-0.31,-0.4 -1,-0.29 -1.4,-0.54a1.3,1.3 0 0 1 -0.2,-1.81l0.08,-0.09a4.13,4.13 0 0 1 1.89,-1c5,-1.8 11.47,-5.7 13.93,-10.68c3.26,-6.59 2.74,-14 1.67,-21a218.05,218.05 0 0 1 -1.81,-49.76a15.07,15.07 0 0 1 0.61,-3.65a7.65,7.65 0 0 1 14.45,-0.11c1.08,3 0.2,6.31 -0.51,9.41c-1.23,5.37 -1.92,11.08 -0.19,16.3c0.79,2.42 2.08,4.66 2.71,7.12c1,3.93 0.25,8.08 -0.51,12.07l-3.77,19.46c-0.56,2.94 -1.51,6 -1.48,9a21.49,21.49 0 0 0 0.36,3.1z"/>
  <path id="svg_12" fill="#ffb79c" d="m185.13,271.52a18.26,18.26 0 0 1 0.33,3.38a4.11,4.11 0 0 1 -1.35,3.08c-1,0.79 -2.26,0.93 -3.4,1.4a11.17,11.17 0 0 0 -2.56,1.67a37.05,37.05 0 0 1 -5,3.72a9.36,9.36 0 0 1 -6,1.32c-0.66,-0.15 -1.33,-0.27 -2,-0.36c-1,-0.07 -2.07,0.28 -3.12,0.29a2.41,2.41 0 0 1 -2.49,-1.49a2.36,2.36 0 0 0 -0.21,-0.82c-0.31,-0.4 -1,-0.29 -1.4,-0.54a1.29,1.29 0 0 1 -0.21,-1.81l0.08,-0.09a4.16,4.16 0 0 1 1.9,-1c5.05,-1.8 11.47,-5.7 13.93,-10.68c3.25,-6.59 2.73,-14 1.66,-21a218,218 0 0 1 -1.8,-49.76a14.58,14.58 0 0 1 0.6,-3.65a7.66,7.66 0 0 1 14.46,-0.11c1.07,3 0.2,6.31 -0.52,9.41c-1.22,5.37 -1.91,11.08 -0.19,16.31c0.8,2.41 2.09,4.65 2.72,7.11c1,3.93 0.25,8.08 -0.52,12.07l-3.71,19.48c-0.56,2.94 -1.52,6.05 -1.48,9a21.11,21.11 0 0 0 0.28,3.07z"/>
  <path id="svg_13" fill="#68e1fd" d="m139.54,127.82q0.9,2.75 2,5.41a2,2 0 0 0 0.69,1a2,2 0 0 0 1.66,-0.07c2,-0.71 4.49,-1.46 6.06,-3c0.71,-0.67 4.38,-3.49 4.38,-4l0,-21.16c0,-1.34 0.66,-4.85 0,-6c-0.44,-0.79 -1.06,-0.62 -1.89,-0.14a93.53,93.53 0 0 0 -15.31,11.23a2.18,2.18 0 0 0 -0.88,2.45a78.66,78.66 0 0 0 3.29,14.28z"/>
  <path id="svg_14" fill="url(#linear-gradient-4)" d="m151.44,122.35a12.85,12.85 0 0 0 0.8,-4.47c-1.24,2.07 -2.61,4.25 -4.8,5.23c-1.28,0.57 -2.74,0.68 -4,1.36c-2.29,1.28 -3.12,4.28 -2.71,6.87c0.24,1.5 1.11,3.18 2.63,3.32a3.77,3.77 0 0 0 1.75,-0.39c2.34,-1 3.94,-1.56 4.41,-4c0.57,-2.64 1.14,-5.27 1.92,-7.92z"/>
  <path id="svg_15" fill="#473f47" d="m194.39,185.07l-0.45,24.84a54,54 0 0 1 -24.79,2.4a6.48,6.48 0 0 1 -2.84,-0.89c-1.64,-1.14 -1.91,-3.31 -1.86,-5.37a5.6,5.6 0 0 1 -4.46,4.12c-2.45,0.48 -5,-0.29 -7.33,-1.09q-4.74,-1.62 -9.38,-3.47a2,2 0 0 1 -1.65,-2.3a2,2 0 0 1 0.17,-0.53a193.94,193.94 0 0 0 4,-21.91c0.51,-4.12 -0.73,-16.35 3.72,-17.56l0.45,-0.09c2.62,-0.38 6.86,1.42 9.27,1.89c3.62,0.71 7.26,1.32 10.93,1.72a80.56,80.56 0 0 0 8.07,0.51a57.12,57.12 0 0 0 14.39,-1.53l0,0.19c1.99,6.1 1.88,12.71 1.76,19.07z"/>
  <path id="svg_16" fill="#68e1fd" d="m197.33,136.71l0,0.81c-0.06,1 -0.13,2 -0.2,3c-0.57,7.56 -1.21,15.41 -3.36,22.71a22.89,22.89 0 0 1 -1,2.77a6.34,6.34 0 0 1 -2.56,3.06c-3.29,1.92 -7.75,1.87 -12,1.39c-2.15,-0.24 -4.23,-0.59 -6,-0.85c-7.15,-1 -14.49,-2.06 -20.83,-5.53a11.18,11.18 0 0 1 -1.32,-0.82a4.53,4.53 0 0 1 -1.69,-2.08c-0.56,-1.55 0.11,-3.24 0.6,-4.82c2.14,-7 0.44,-14.48 0.47,-21.67c0,-1.31 0.17,-2.61 0.17,-3.92a5.55,5.55 0 0 0 -0.08,-1c-0.18,-1.82 -0.65,-3.64 -0.84,-5.46a40.79,40.79 0 0 1 0.26,-11.2a43.34,43.34 0 0 1 3.51,-11.39c1.56,-3.13 4.38,-4.45 7.55,-6a26.36,26.36 0 0 1 8.49,-2.89a21.78,21.78 0 0 1 6.29,0.35c6.39,1.17 14.79,4.5 19.14,9.53c3.27,3.78 3.66,9.18 3.76,14.19q0.18,9.89 -0.36,19.82z"/>
  <path id="svg_17" fill="url(#linear-gradient-5)" d="m197.33,136.71l0,0.81c-0.06,1 -0.13,2 -0.2,3c-0.57,7.56 -1.21,15.41 -3.36,22.71a22.89,22.89 0 0 1 -1,2.77c1.87,6.13 1.76,12.69 1.64,19.1l-0.41,24.84a54.75,54.75 0 0 1 -13.63,2.77c5.21,-12.59 3.92,-27.12 2.49,-40.81c-1.33,1.4 -3.91,0.35 -4.61,-1.44a2.09,2.09 0 0 1 -0.08,-0.23a4.63,4.63 0 0 1 0.15,-2.85a9.17,9.17 0 0 1 1.52,-2.71a22.74,22.74 0 0 1 6.24,-5.23a5.47,5.47 0 0 0 1.84,-1.47a4.68,4.68 0 0 0 0.62,-1.56a37.92,37.92 0 0 0 -0.26,-19.78c-1.08,-3.78 -2.78,-7.62 -2.18,-11.49c-0.35,4 7,9.15 9.7,10.76c0.53,0.27 1.02,0.54 1.53,0.81z"/>
  <path id="svg_18" fill="#ffb79c" d="m162.49,83.88a4.57,4.57 0 0 0 2.42,2.22c1.23,0.5 2.61,0.57 3.61,1.48a6.31,6.31 0 0 1 1.62,3.49c0.29,1.34 0.34,2.5 -1.24,3c-1,0.35 -2.19,0.35 -3,1a2.84,2.84 0 0 0 -0.83,2.59a7.06,7.06 0 0 0 1.13,2.59a8.77,8.77 0 0 0 2.49,2.69c2,1.25 4.55,1 6.79,0.34c3.36,-1 6.68,-3.45 7.19,-6.93c-3.84,-1.73 -5.12,-6.85 -3.39,-10.47c1.5,-3.13 3.12,-6.26 3.71,-9.72a8,8 0 0 0 -0.4,-4.78a8.2,8.2 0 0 0 -5.26,-3.82a15.38,15.38 0 0 0 -8.74,-0.09c-1.07,0.37 -1.39,1.1 -1.89,2q-1.14,2.22 -2.09,4.53c-0.71,1.75 -1.33,3.53 -1.89,5.35a6.27,6.27 0 0 0 -0.23,4.53z"/>
  <path id="svg_19" fill="#473f47" d="m170.17,68.62c1.6,1.43 4.36,0.48 6.09,1.75s1.58,3.75 1.59,5.56c0,0.33 -0.56,4 -1,3.77c0.7,0.5 1.24,-0.87 2,-1.26s1.89,0.75 1.71,1.75a5.94,5.94 0 0 1 -1.6,2.52a8.55,8.55 0 0 0 -1.9,5.33c0,0.45 0.17,1 0.62,1.06s1,-0.63 1.31,-0.87c1.85,-1.25 4.08,-1.77 5.88,-3.09a5.46,5.46 0 0 0 2.35,-3.59a11.2,11.2 0 0 1 0.29,-3a8.27,8.27 0 0 1 1.33,-1.78a2,2 0 0 0 0.44,-2c-0.15,-0.3 -0.42,-0.53 -0.57,-0.82a3,3 0 0 1 0,-2a6.67,6.67 0 0 0 -1,-5.38c-0.89,-1.15 -2.23,-1.85 -3.26,-2.88s-1.71,-2.69 -0.91,-3.91c0.31,-0.46 0.83,-0.9 0.72,-1.45s-0.49,-0.65 -0.87,-0.81a5.71,5.71 0 0 0 -5.3,0.59c0.6,-0.68 -0.22,-1.83 -1.13,-1.87a3.75,3.75 0 0 0 -2.38,1.18a1.43,1.43 0 0 0 -1.25,-1.17a3.46,3.46 0 0 0 -1.79,0.31a10,10 0 0 0 -4.54,3.27a6.38,6.38 0 0 0 -1.14,5.37a3,3 0 0 0 1.79,2.15a9.12,9.12 0 0 1 1.54,0.38a6.85,6.85 0 0 1 0.98,0.89z"/>
  <path id="svg_20" fill="#e2937a" d="m167.65,86.94l0.46,0.14a0.56,0.56 0 0 1 0.36,0.17a0.54,0.54 0 0 1 0.05,0.33a6.31,6.31 0 0 1 1.62,3.49c0.29,1.36 0.58,2.7 0.88,4a33.14,33.14 0 0 0 3.28,-8.24a32.14,32.14 0 0 1 -6.65,0.11z"/>
  <path id="svg_21" fill="#68e1fd" d="m212.64,120.62a2,2 0 0 1 0.53,1.07a2,2 0 0 1 -0.42,1.07a81.5,81.5 0 0 1 -13.09,15.24a1.77,1.77 0 0 1 -2.46,0.48a1.81,1.81 0 0 1 -0.33,-0.29c-6.15,-4.56 -12.47,-10 -14.12,-17.46c-1.17,-5.3 -0.61,-24.9 8.78,-20.8c4.15,1.82 7.83,6.23 11,9.38a140.42,140.42 0 0 1 10.11,11.31z"/>
  <rect id="svg_22" fill="#7f5e54" height="9.64" width="1.96" y="82.43" x="152.7"/>
  <path id="svg_23" fill="#68e1fd" d="m154.57,68.76l0,0a3.58,3.58 0 0 1 3.58,3.58l0,0l0,10.37a1.36,1.36 0 0 1 -1.36,1.36l-4.46,0a1.36,1.36 0 0 1 -1.33,-1.36l0,-10.37a3.58,3.58 0 0 1 3.58,-3.58l-0.01,0z"/>
  <path id="svg_24" fill="#68e1fd" d="m153.33,68.76l0,0a3.58,3.58 0 0 1 3.58,3.58l0,0l0,10.37a1.36,1.36 0 0 1 -1.36,1.36l-4.42,0a1.36,1.36 0 0 1 -1.37,-1.35l0,0l0,-10.38a3.59,3.59 0 0 1 3.57,-3.58z"/>
  <path id="svg_25" fill="url(#linear-gradient-6)" d="m153.33,68.76l0,0a3.58,3.58 0 0 1 3.58,3.58l0,0l0,10.37a1.36,1.36 0 0 1 -1.36,1.36l-4.42,0a1.36,1.36 0 0 1 -1.37,-1.35l0,0l0,-10.38a3.59,3.59 0 0 1 3.57,-3.58z"/>
  <path id="svg_26" fill="#ffb79c" d="m219.23,136.22c1.45,2.5 3,5.22 2.66,8.09c-0.38,3.6 -3.4,6.25 -6.21,8.53l-21.21,17.16a3.4,3.4 0 0 1 -0.77,0.53a4.86,4.86 0 0 1 -2,0.28a11.77,11.77 0 0 0 -8,3.5a9.29,9.29 0 0 1 6.41,-14.78a14.1,14.1 0 0 0 3.23,-0.43a8.13,8.13 0 0 0 2.47,-1.66l11.63,-10.09c0.65,-0.56 1.36,-1.28 1.2,-2.13a2.63,2.63 0 0 0 -0.95,-1.32a32.57,32.57 0 0 1 -6.71,-8.72a5.39,5.39 0 0 1 -0.76,-2.34a5.07,5.07 0 0 1 1.11,-2.86c1.59,-2.36 6.14,-8.31 9.56,-7.11c3.19,1.13 6.66,10.46 8.34,13.35z"/>
  <path id="svg_27" fill="#ffb79c" d="m149.09,88.25a7.58,7.58 0 0 1 6.52,-1.82a4.39,4.39 0 0 1 2.53,1.32a5.67,5.67 0 0 1 0.92,4.14a27.67,27.67 0 0 1 -0.67,4.44a8.26,8.26 0 0 1 -1.39,3.35a3.48,3.48 0 0 1 -3.21,1.37l-7.84,21a53.58,53.58 0 0 1 -4.31,9.59a9.37,9.37 0 0 1 -2.82,3.15a4.12,4.12 0 0 1 -4.06,0.34a4.57,4.57 0 0 1 -1.67,-1.71c-1.79,-3 -1.3,-6.93 0.08,-10.17s3.57,-6.06 5.18,-9.19c2.25,-4.34 3.35,-9.14 5.25,-13.63c0.83,-2 2.47,-3.89 3.05,-5.89c0.68,-2.44 0.35,-4.39 2.44,-6.29z"/>
  <path id="svg_28" fill="#68e1fd" d="m164.79,281.27a11.35,11.35 0 0 1 6.75,1.19a7.38,7.38 0 0 1 1.7,1.35a1.5,1.5 0 0 0 1,0.66c0.66,0 1,-0.8 0.92,-1.46a3.19,3.19 0 0 0 -1.7,-2.18a7.55,7.55 0 0 0 -2.76,-0.74a21.49,21.49 0 0 0 -5.55,0.12a4.61,4.61 0 0 0 -0.07,-1.57a1.32,1.32 0 0 0 -1.23,-1.11a1.46,1.46 0 0 0 -1.33,1.28a1.39,1.39 0 0 1 -0.09,0.57a2.83,2.83 0 0 1 -1,1.29l-1,0.93a5.42,5.42 0 0 0 -1.69,2.7c0,0.3 0,0.67 0.27,0.78a0.18,0.18 0 0 0 0.2,0a0.23,0.23 0 0 0 0.06,-0.16a4,4 0 0 1 1.66,-2.54a6.08,6.08 0 0 1 2.91,-1l0.95,-0.11z"/>
  <path id="svg_29" fill="#68e1fd" d="m140.72,277.35a11.44,11.44 0 0 1 6.75,1.19a7.76,7.76 0 0 1 1.71,1.36a1.6,1.6 0 0 0 1,0.66c0.66,0 1,-0.81 0.92,-1.47a3.24,3.24 0 0 0 -1.77,-2.18a7.29,7.29 0 0 0 -2.75,-0.73a21.48,21.48 0 0 0 -5.55,0.11a4.88,4.88 0 0 0 -0.07,-1.57a1.32,1.32 0 0 0 -1.24,-1.11a1.47,1.47 0 0 0 -1.33,1.28a1.39,1.39 0 0 1 -0.08,0.57a2.83,2.83 0 0 1 -1,1.29l-1,0.93a5.42,5.42 0 0 0 -1.69,2.7c0,0.3 0,0.67 0.27,0.78a0.17,0.17 0 0 0 0.19,0a0.24,0.24 0 0 0 0.07,-0.16a4,4 0 0 1 1.66,-2.53a6,6 0 0 1 2.91,-1l1,-0.12z"/>
  <path stroke="#68e1fd" id="svg_30" opacity="0.39" fill="none" d="m191.999663,13.320048l0.57,0a41.69,41.69 0 0 0 4.31,-0.73a53.69,53.69 0 0 1 9.06,6l10.62,8.67l-7,-3.51a21.78,21.78 0 0 1 5,16.7a61.86,61.86 0 0 0 -6.42,-12.51c-2.74,-3.82 -6.46,-7.09 -11,-8.46a37.33,37.33 0 0 1 8.37,22.68c-1.41,-7.93 -7.44,-14.12 -13.18,-19.77c-1.09,-1.08 -2.88,-3.59 -4.5,-3.19c1.07,3.49 2.76,6.86 4,10.3c1.17,3.21 1.81,7.33 3.48,10.21a156.69,156.69 0 0 0 -13,-19.27a69.28,69.28 0 0 0 7.39,19.83l-13.7,-20a71,71 0 0 0 6.49,22.12a45.23,45.23 0 0 1 -12.2,-18a60.29,60.29 0 0 0 5.71,22.61c-7.7,-5.43 -10.12,-15.58 -12,-24.82a126.47,126.47 0 0 0 -0.06,27.23a49.71,49.71 0 0 1 -6.11,-24a120.85,120.85 0 0 0 -4.28,27.77a86.76,86.76 0 0 1 -1.78,-28.19c-5.84,9.83 -8.19,21.29 -10.45,32.5a73,73 0 0 1 3.57,-29.37a132.19,132.19 0 0 0 -20,37.11c0.34,-11.6 6.89,-22 13.23,-31.69q-17.24,12.32 -33.25,26.22c1.94,-4 5.25,-7.11 8.52,-10.11q8.63,-7.93 17.56,-15.55a88.63,88.63 0 0 1 14.17,-10.34a73.11,73.11 0 0 1 17.33,-6.52c6.58,-1.72 13.52,-3.42 20.32,-3.91c3.06,-0.27 6.17,0.19 9.23,-0.01z"/>
  <path id="svg_31" opacity="0.39" fill="#68e1fd" d="m212.68,28.93c0.41,0.77 0.78,1.56 1.12,2.36c-0.36,-0.79 -0.73,-1.58 -1.12,-2.36z"/>
  <path stroke="#68e1fd" id="svg_32" opacity="0.39" fill="none" d="m231.61964,58.620024a157.93,157.93 0 0 1 -14.72,-12.37a42.21,42.21 0 0 0 6.31,19.46a31,31 0 0 1 -10.88,-14.77a67.27,67.27 0 0 0 12.76,27.19a48.07,48.07 0 0 1 -16.36,-17.34c-0.85,9.8 2.54,19.41 5.87,28.66a67.07,67.07 0 0 1 -14,-22.62a74.68,74.68 0 0 0 1.47,33.57a62.75,62.75 0 0 1 -7.74,-37.18a55.91,55.91 0 0 1 18.26,-35.62c0.56,-0.49 1.45,-1.35 2.45,-2.2c2.77,2.54 5.41,5.22 8,8a32.62,32.62 0 0 0 8.65,14.87a140.18,140.18 0 0 0 -11.33,-9q5.21,9.92 11.26,19.35z"/>
 </g>
</svg>